<svg id="_0347_real_estate_agent" xmlns="http://www.w3.org/2000/svg" viewBox="0 0 500 500" data-imageid="real-estate-agent-75" imageName="Real Estate Agent" class="illustrations_image" style="width: 151px;"><defs><style>.cls-1_real-estate-agent-75{fill:#fff;}.cls-2_real-estate-agent-75{fill:#f4a28c;}.cls-3_real-estate-agent-75{fill:#a5a5a5;}.cls-4_real-estate-agent-75{fill:#ce8172;}.cls-5_real-estate-agent-75{fill:#e6e6e6;}.cls-6_real-estate-agent-75{opacity:.03;}.cls-6_real-estate-agent-75,.cls-7_real-estate-agent-75,.cls-8_real-estate-agent-75{fill:none;}.cls-7_real-estate-agent-75{opacity:.08;}.cls-8_real-estate-agent-75{opacity:.31;}.cls-9_real-estate-agent-75{fill:#24285b;}.cls-10_real-estate-agent-75{fill:#000001;}.cls-11_real-estate-agent-75{fill:#ffd200;}.cls-12_real-estate-agent-75{fill:#68e1fd;}</style></defs><g id="bg_real-estate-agent-75"><g class="cls-6_real-estate-agent-75"><ellipse class="cls-10_real-estate-agent-75" cx="231.72" cy="447.65" rx="216.58" ry="32.64"/></g><path class="cls-12_real-estate-agent-75 targetColor" d="m200.58,445.62c.99-9.07-2.25-18.52-8.64-25.04-6.64-6.78-16.54-10.22-25.95-9.02-.12-12.02-8.29-23.54-19.58-27.65-11.29-4.11-24.96-.52-32.77,8.61-2.04-8.33-11.92-12.24-20.49-12.07-9.28.18-18.58,3.76-25.12,10.36-6.18,6.23-7.57,13.35-9.1,21.56-6.78-1.94-12.96,1.81-16.91,7.23-3.49,4.8-6.61,11.46-6.21,17.47.06.93,1.2,8.55,2.01,8.55h162.75Z" style="fill: rgb(255, 107, 0);"/><path class="cls-12_real-estate-agent-75 targetColor" d="m288.32,427.89c.33-3.07-.76-6.28-2.93-8.49-2.25-2.3-5.61-3.46-8.8-3.06-.04-4.08-2.81-7.99-6.64-9.38-3.83-1.39-8.46-.18-11.11,2.92-.69-2.82-4.04-4.15-6.95-4.09-3.15.06-6.3,1.28-8.52,3.51-2.1,2.11-2.57,4.53-3.09,7.31-2.3-.66-4.4.61-5.73,2.45-1.18,1.63-2.24,3.89-2.1,5.93.02.32.41,2.9.68,2.9h55.2Z" style="fill: rgb(255, 107, 0);"/></g><g id="person_real-estate-agent-75"><polygon class="cls-2_real-estate-agent-75" points="284.41 330.76 332.32 430.78 342.8 425.75 318.81 337.24 284.41 330.76"/><polygon class="cls-2_real-estate-agent-75" points="359.25 281.1 373.68 438 387.88 438 394.5 281.1 359.25 281.1"/><polygon class="cls-9_real-estate-agent-75" points="331.6 245.68 284.41 330.76 394.29 351.45 400.51 255.86 331.6 245.68"/><path class="cls-12_real-estate-agent-75 targetColor" d="m329.88,425.61s-1.76,8.67-8.17,11.52c-6.41,2.85-2.86,12.15,6.74,6.16,3.66-2.29,6.44-4.46,8.47-6.27,2.42-2.16,7.33-3.78,10.5-4.44.99-.21,1.88-.91,2.29-2.59,1.16-4.79-8.49-10.09-8.49-10.09l-11.33,5.72Z" style="fill: rgb(255, 107, 0);"/><path class="cls-12_real-estate-agent-75 targetColor" d="m373.91,432.43s-5.24,7.12-12.26,7.02c-7.01-.11-7.71,9.82,3.52,8.42,4.28-.53,7.71-1.34,10.32-2.13,3.1-.94,8.24-.35,11.4.38.99.23,2.09-.04,3.17-1.39,3.07-3.86-1.93-12.78-1.93-12.78l-14.22.48Z" style="fill: rgb(255, 107, 0);"/><path class="cls-9_real-estate-agent-75" d="m375.9,60.48s-34.2,20.88-15.63,39.08c18.56,18.2,34.02-14.08,34.02-14.08l-.96-26.32-17.43,1.32Z"/><path class="cls-2_real-estate-agent-75" d="m372.27,85.03s-28.54-12.23-42.12,20.1c-8.28,19.71,39.13,69.49-12.33,65.2-37.77-3.15-45.96-38.46-44.46-57.03.89-10.94-3.9-21.82-13.13-27.77-3.62-2.33-7.72-3.79-12.1-3.25-15.01,1.85,8.58,23.29,8.58,23.29,0,0-7.86,103.06,64.32,108.78,72.18,5.72,72.63-65.74,51.24-129.32Z"/><path class="cls-12_real-estate-agent-75 targetColor" d="m370.89,84.8l26.01,4.69s87.54,30,24.79,116.12c-10.84,14.88-18.04,32.11-21.18,50.25h0s-68.91-10.18-68.91-10.18l-1.17-12.9c-1.6-17.63-6.42-34.95-15.21-50.31-11.03-19.29-16.31-55.76,55.67-97.66Z" style="fill: rgb(255, 107, 0);"/><path class="cls-1_real-estate-agent-75" d="m372.27,85.03s-15.31,23.89-10.97,63.39c0,0,19.04-54.43,26.07-60.67l-15.1-2.72Z"/><path class="cls-2_real-estate-agent-75" d="m378.49,38.08s-4.18,11.41-4.32,19.71c-.06,3.37,2.67,6.19,6.04,6.19,4.18.01,9.84-1.19,12.82-7.03l6.28-9.29s3.73-5.96-1.59-12.51c-5.32-6.55-17.03-4.15-19.23,2.92Z"/><g class="cls-7_real-estate-agent-75"><path class="cls-10_real-estate-agent-75" d="m397.47,128.03s-15.83,15.61-2.97,44.68c12.86,29.07-17.11,44.07-17.11,44.07l-18.14,32.98,41.26,6.1s4.25-27.57,15.2-41.18c10.95-13.62,35.96-24.52,35.96-24.52l-7.33-28.41-46.86-33.72Z"/></g><polygon class="cls-2_real-estate-agent-75" points="398.17 49.35 393.92 88.94 372.27 85.03 384.06 57.8 398.17 49.35"/><path class="cls-2_real-estate-agent-75" d="m388.23,51.5s1.31-4.49,4.61-3.22c3.3,1.27,1.44,7.77-3.33,7.13l-1.28-3.9Z"/><path class="cls-2_real-estate-agent-75" d="m376.22,45.41l-4.49,3.63c-1.11.9-.91,2.64.38,3.26l4.25,2.06-.14-8.96Z"/><g class="cls-8_real-estate-agent-75"><path class="cls-4_real-estate-agent-75" d="m381.22,63.65s4.13.27,7.97-2.23c0,0-2.21,6.95-11.81,11.79l3.84-9.56Z"/></g><path class="cls-9_real-estate-agent-75" d="m382.64,20.52c-7.72,2.67-9.92,12.47-4.62,18.68,1.65,1.93,3.95,4.03,7.17,6.14,11.15,7.28-16.64,58.08,11.91,61.02,28.55,2.93,24.88-11.46,17.38-26.09-7.5-14.63-4.81-35.03-5.42-46.14-.45-8.07-15.89-17.25-26.43-13.6Z"/><rect class="cls-11_real-estate-agent-75" x="318.41" y="230.21" width="75.06" height="48.25" transform="translate(174.86 -143.9) rotate(30)"/><path class="cls-2_real-estate-agent-75" d="m400.74,120.37c7.23-12.11,23.83-14.55,34.66-5.52,20.06,16.73,44.23,50.17,49.14,71.91,7.15,31.62-110.83,39.39-110.83,39.39,0,0,3.54,14.25-13.21,16.39-11.06,1.42-4.34-11.19,1.5-19.92,3.36-5.01,8.04-8.98,13.54-11.48l59.37-26.97s-53.57-31.28-34.16-63.81Z"/></g><g id="for_sale_real-estate-agent-75"><rect class="cls-5_real-estate-agent-75" x="140.43" y="80.7" width="29.36" height="43.95"/><polygon class="cls-5_real-estate-agent-75" points="213.53 80.7 130.21 135.15 130.21 244.71 296.85 244.71 296.85 135.15 213.53 80.7"/><polygon class="cls-3_real-estate-agent-75" points="313.9 134.45 213.53 66.26 113.15 134.45 120.38 145.08 213.53 81.8 306.68 145.08 313.9 134.45"/><path class="cls-3_real-estate-agent-75" d="m179.42,140.73h16.65v3.37h-13.06v8.31h12.16v3.37h-12.16v11.45h-3.59v-26.5Z"/><path class="cls-3_real-estate-agent-75" d="m213.06,167.9c-2.02,0-3.88-.36-5.58-1.07-1.7-.71-3.15-1.69-4.36-2.94-1.21-1.25-2.16-2.72-2.84-4.42-.69-1.7-1.03-3.53-1.03-5.5s.34-3.8,1.03-5.5c.69-1.7,1.63-3.17,2.84-4.42,1.21-1.25,2.66-2.23,4.36-2.94,1.7-.71,3.56-1.07,5.58-1.07s3.88.36,5.58,1.07c1.7.71,3.15,1.69,4.36,2.94,1.21,1.25,2.16,2.72,2.84,4.42.69,1.7,1.03,3.53,1.03,5.5s-.34,3.8-1.03,5.5c-.69,1.7-1.63,3.17-2.84,4.42-1.21,1.25-2.66,2.23-4.36,2.94-1.7.71-3.56,1.07-5.58,1.07Zm0-3.37c1.52,0,2.89-.28,4.12-.84,1.22-.56,2.27-1.31,3.14-2.26s1.55-2.06,2.02-3.35c.47-1.28.71-2.65.71-4.1s-.24-2.81-.71-4.1c-.47-1.28-1.15-2.4-2.02-3.35s-1.92-1.7-3.14-2.27c-1.22-.56-2.6-.84-4.12-.84s-2.89.28-4.12.84c-1.22.56-2.27,1.32-3.14,2.27s-1.55,2.06-2.02,3.35c-.47,1.29-.71,2.65-.71,4.1s.24,2.81.71,4.1c.47,1.29,1.15,2.4,2.02,3.35s1.92,1.7,3.14,2.26c1.22.56,2.59.84,4.12.84Z"/><path class="cls-3_real-estate-agent-75" d="m232.04,140.73h9.32c1.7,0,3.09.23,4.19.69,1.1.46,1.96,1.05,2.6,1.76s1.08,1.51,1.33,2.4c.25.89.37,1.74.37,2.56s-.15,1.66-.45,2.45-.73,1.5-1.29,2.13c-.56.64-1.25,1.17-2.06,1.61-.81.44-1.72.71-2.71.81l7.52,12.09h-4.49l-6.74-11.68h-4v11.68h-3.59v-26.5Zm3.59,11.68h4.71c.7,0,1.39-.06,2.08-.17.69-.11,1.3-.32,1.83-.62.54-.3.97-.73,1.29-1.29.32-.56.49-1.29.49-2.19s-.16-1.63-.49-2.19c-.33-.56-.75-.99-1.29-1.29-.54-.3-1.15-.5-1.83-.62-.69-.11-1.38-.17-2.08-.17h-4.71v8.53Z"/><path class="cls-3_real-estate-agent-75" d="m173.22,206.6c.65.97,1.48,1.69,2.49,2.15,1.01.46,2.05.69,3.12.69.6,0,1.21-.09,1.83-.28.62-.19,1.19-.47,1.7-.84.51-.38.93-.84,1.25-1.38s.49-1.18.49-1.91c0-1.02-.33-1.8-.97-2.34-.65-.54-1.45-.99-2.41-1.35-.96-.36-2.01-.71-3.14-1.05-1.14-.34-2.18-.8-3.14-1.4-.96-.6-1.77-1.4-2.41-2.41-.65-1.01-.97-2.38-.97-4.1,0-.77.17-1.6.5-2.47.34-.87.87-1.67,1.59-2.4s1.65-1.33,2.79-1.81,2.5-.73,4.1-.73c1.45,0,2.83.2,4.15.6,1.32.4,2.48,1.21,3.48,2.43l-2.92,2.66c-.45-.7-1.09-1.26-1.91-1.68-.82-.42-1.76-.64-2.81-.64s-1.83.13-2.49.39c-.66.26-1.19.6-1.59,1.01-.4.41-.68.85-.84,1.33-.16.47-.24.91-.24,1.31,0,1.12.32,1.98.97,2.58.65.6,1.45,1.09,2.41,1.46.96.37,2.01.71,3.14,1.01,1.14.3,2.18.72,3.14,1.25.96.54,1.76,1.26,2.41,2.17.65.91.97,2.16.97,3.76,0,1.27-.24,2.42-.73,3.44-.49,1.02-1.14,1.88-1.96,2.58s-1.8,1.23-2.92,1.61c-1.12.37-2.32.56-3.59.56-1.7,0-3.31-.3-4.83-.9-1.52-.6-2.73-1.52-3.63-2.77l2.96-2.55Z"/><path class="cls-3_real-estate-agent-75" d="m201.55,185.64h3.26l11.34,26.5h-4.19l-2.66-6.55h-12.61l-2.62,6.55h-4.19l11.68-26.5Zm6.44,16.8l-4.94-12.16h-.08l-5.02,12.16h10.03Z"/><path class="cls-3_real-estate-agent-75" d="m219.59,185.64h3.59v23.13h12.16v3.37h-15.76v-26.5Z"/><path class="cls-3_real-estate-agent-75" d="m239.02,185.64h17.1v3.37h-13.51v7.9h12.57v3.37h-12.57v8.5h14.18v3.37h-17.78v-26.5Z"/><rect class="cls-5_real-estate-agent-75" x="208.3" y="244.71" width="10.46" height="203.35"/></g></svg>