<svg id="visual" viewBox="0 0 900 600" width="900" height="600" xmlns="http://www.w3.org/2000/svg" xmlns:xlink="http://www.w3.org/1999/xlink" version="1.1"><rect x="0" y="0" width="900" height="600" fill="#FFFFFF"></rect><defs><linearGradient id="grad1_0" x1="33.3%" y1="0%" x2="100%" y2="100%"><stop offset="20%" stop-color="#ffffff" stop-opacity="1"></stop><stop offset="80%" stop-color="#ffffff" stop-opacity="1"></stop></linearGradient></defs><defs><linearGradient id="grad2_0" x1="0%" y1="0%" x2="66.7%" y2="100%"><stop offset="20%" stop-color="#ffffff" stop-opacity="1"></stop><stop offset="80%" stop-color="#ffffff" stop-opacity="1"></stop></linearGradient></defs><g transform="translate(900, 0)"><path d="M0 270.4C-36.1 244.4 -72.2 218.5 -115 199.2C-157.8 179.9 -207.2 167.3 -234.2 135.2C-261.2 103.1 -265.8 51.6 -270.4 0L0 0Z" fill="#fd5732"></path></g><g transform="translate(0, 600)"><path d="M0 -270.4C52.1 -266.1 104.3 -261.9 135.2 -234.2C166.1 -206.5 175.9 -155.4 194.9 -112.5C213.9 -69.6 242.1 -34.8 270.4 0L0 0Z" fill="#fd5732"></path></g></svg>